<svg width="24" height="24" viewBox="0 0 24 24" fill="none" xmlns="http://www.w3.org/2000/svg">
<path d="M12.8197 5.57959L11.999 6.40209L11.1757 5.57884C9.07663 3.47978 5.67337 3.47978 3.5743 5.57884C1.47523 7.67791 1.47523 11.0812 3.5743 13.1802L11.4697 21.0756C11.7626 21.3685 12.2374 21.3685 12.5303 21.0756L20.4318 13.1788C22.5262 11.0727 22.5298 7.67904 20.4303 5.57959C18.3274 3.4767 14.9226 3.4767 12.8197 5.57959ZM19.3682 12.1211L12 19.4846L4.63496 12.1196C3.12168 10.6063 3.12168 8.15278 4.63496 6.6395C6.14824 5.12622 8.60176 5.12622 10.115 6.6395L11.4725 7.99695C11.7703 8.29481 12.255 8.28901 12.5457 7.9841L13.8803 6.64025C15.3974 5.12315 17.8526 5.12314 19.3697 6.64025C20.8833 8.15389 20.8807 10.6001 19.3682 12.1211Z" fill="#C5D36E"/>
</svg>
