<svg width="83" height="83" viewBox="0 0 83 83" fill="none" xmlns="http://www.w3.org/2000/svg">
<g clip-path="url(#clip0_115_1103)">
<path d="M30.9841 20.7907C30.9841 19.1987 31.5288 17.8257 32.6182 16.6715C33.7479 15.5572 35.1802 15 36.9152 15C38.6501 15 40.0421 15.5572 41.0912 16.6715C42.1805 17.8257 42.7252 19.1987 42.7252 20.7907C42.7252 22.4224 42.1805 23.7955 41.0912 24.9098C40.0421 26.0242 38.6501 26.5814 36.9152 26.5814C35.1802 26.5814 33.7479 26.0242 32.6182 24.9098C31.5288 23.7955 30.9841 22.4224 30.9841 20.7907ZM9.25693 20.7907C9.25693 19.1987 9.80162 17.8257 10.891 16.6715C12.0207 15.5572 13.4531 15 15.188 15C16.923 15 18.315 15.5572 19.364 16.6715C20.4534 17.8257 20.9981 19.1987 20.9981 20.7907C20.9981 22.4224 20.4534 23.7955 19.364 24.9098C18.315 26.0242 16.923 26.5814 15.188 26.5814C13.4531 26.5814 12.0207 26.0242 10.891 24.9098C9.80162 23.7955 9.25693 22.4224 9.25693 20.7907Z" fill="#A4A4A4"/>
<path d="M-2.00005 57.321C1.67158 54.9331 5.90808 53.0825 10.7094 51.7691C15.5511 50.4956 20.756 49.8588 26.3239 49.8588C31.8919 49.8588 37.0968 50.4956 41.9385 51.7691C46.8205 53.0825 51.057 54.9331 54.6479 57.321L54.6479 66.216C50.0887 63.7087 45.489 61.878 40.8491 60.7238C36.2495 59.5697 31.4077 58.9926 26.3239 58.9926C21.2402 58.9926 16.3783 59.5697 11.7383 60.7238C7.13868 61.878 2.55922 63.7087 -2.00005 66.216L-2.00005 57.321Z" fill="#A4A4A4"/>
</g>
<defs>
<clipPath id="clip0_115_1103">
<rect width="97" height="97" fill="white" transform="translate(-2 -11)"/>
</clipPath>
</defs>
</svg>
