<svg width="14" height="15" viewBox="0 0 14 15" fill="none" xmlns="http://www.w3.org/2000/svg">
<path d="M6.54112 3.44746C5.26943 2.17576 3.21207 2.16958 1.94588 3.43578C0.679686 4.70197 0.685866 6.75933 1.95756 8.03102L6.66505 12.7385C6.86031 12.9338 7.1769 12.9338 7.37216 12.7385L12.0552 8.05824C13.3184 6.78793 13.3144 4.73634 12.0425 3.46442C10.7686 2.19045 8.71024 2.18427 7.44178 3.45273L6.99452 3.90085L6.54112 3.44746ZM11.3461 7.35311L7.01861 11.6779L2.66467 7.32391C1.78255 6.4418 1.77827 5.0176 2.65299 4.14288C3.5277 3.26817 4.9519 3.27245 5.83402 4.15456L6.64337 4.96392C6.84197 5.16252 7.16514 5.15862 7.35889 4.9553L8.14889 4.15984C9.02587 3.28286 10.451 3.28714 11.3354 4.17153C12.2178 5.05387 12.2205 6.47382 11.3461 7.35311Z" fill="white"/>
</svg>
