<svg width="14" height="14" viewBox="0 0 14 14" fill="none" xmlns="http://www.w3.org/2000/svg">
<path d="M10.4632 9.99629L9.79554 10.6566C9.30342 11.1396 8.66491 11.7606 7.87975 12.5197C7.38911 12.9941 6.61071 12.994 6.12014 12.5196L4.1564 10.6094C3.9096 10.3671 3.70301 10.1627 3.5366 9.99629C1.62387 8.08356 1.62387 4.98241 3.5366 3.06968C5.44933 1.15695 8.55048 1.15695 10.4632 3.06968C12.3759 4.98241 12.3759 8.08356 10.4632 9.99629ZM8.40627 6.6875C8.40627 5.91079 7.77662 5.28114 6.9999 5.28114C6.22319 5.28114 5.59354 5.91079 5.59354 6.6875C5.59354 7.46422 6.22319 8.09387 6.9999 8.09387C7.77662 8.09387 8.40627 7.46422 8.40627 6.6875Z" fill="white"/>
</svg>
