<svg width="57" height="57" viewBox="0 0 57 57" fill="none" xmlns="http://www.w3.org/2000/svg">
<g clip-path="url(#clip0_3_11)">
<path d="M29.7201 1.22016V37.0559H27.2798V1.22016C27.2798 0.547178 27.827 0 28.4999 0C29.1729 0 29.7201 0.547178 29.7201 1.22016Z" fill="white"/>
<path d="M23.6077 45.8489C21.861 45.8489 21.0283 44.9219 20.6372 44.1442C20.0207 42.9182 20.1291 41.2801 20.8949 40.2491C21.2972 39.7077 21.1843 38.9427 20.6429 38.5406C20.1017 38.1385 19.3366 38.2512 18.9345 38.7926C17.6069 40.5798 17.4143 43.1713 18.4553 45.2413C19.43 47.1795 21.308 48.2911 23.6078 48.2911C26.1195 48.2911 27.868 47.1954 28.8046 45.0345C29.6103 43.1757 29.7214 40.7168 29.7214 38.3365V37.0535H27.2788V38.3365C27.2788 44.0235 26.3869 45.8489 23.6077 45.8489Z" fill="#0D39AC"/>
<path d="M28.2561 2.81738C28.0934 2.92103 27.9381 3.02445 27.7755 3.13545C27.6054 3.24644 27.4427 3.35732 27.2801 3.47567C27.1321 3.57174 26.9843 3.67539 26.8438 3.78616C26.6145 3.94146 26.3927 4.10411 26.1783 4.27422C25.5054 4.78455 24.8546 5.31692 24.226 5.88637C23.8192 6.24874 23.4273 6.62581 23.0353 7.01033C21.9705 8.07519 20.9796 9.22153 20.07 10.4416C19.8999 10.6709 19.7298 10.9075 19.5671 11.1441C19.1308 11.7579 18.7242 12.3865 18.3396 13.0372C18.2213 13.2295 18.1104 13.4217 17.9994 13.6214C17.6667 14.1982 17.3561 14.7824 17.0751 15.3813C16.9642 15.5884 16.868 15.8029 16.7719 16.0173C16.7571 16.0396 16.7423 16.0618 16.7423 16.0839C16.5426 16.4979 16.3651 16.9269 16.195 17.3559C16.1359 17.4816 16.0841 17.6147 16.0397 17.7478C15.9806 17.881 15.9288 18.0215 15.8844 18.1545C15.7587 18.4874 15.6404 18.8276 15.5295 19.1677C15.3963 19.567 15.2707 19.9737 15.1523 20.3877C15.0561 20.7206 14.9674 21.0534 14.8861 21.3936C14.8492 21.5118 14.827 21.6302 14.7974 21.7485C14.7826 21.8076 14.7678 21.8667 14.753 21.9334C14.6864 22.2291 14.6198 22.525 14.5607 22.8282C14.5534 22.8503 14.5534 22.8799 14.5459 22.9022C14.5016 23.124 14.4646 23.3532 14.4276 23.5751C14.3758 23.8266 14.3388 24.0778 14.3018 24.3293C14.2575 24.625 14.2204 24.9136 14.1834 25.2093C12.7414 23.0056 10.1015 21.5266 7.07691 21.5266C4.40726 21.5266 2.03352 22.6803 0.525023 24.4624C0.33276 24.6842 0.16265 24.9136 0 25.1575C0.0592266 24.8098 0.118342 24.4697 0.192264 24.1296C2.64015 12.3422 13.762 3.35732 27.28 2.847C27.6054 2.82484 27.9307 2.81738 28.2561 2.81738Z" fill="#002653"/>
<path d="M57 25.1575C55.5506 22.9834 52.9254 21.5265 49.9231 21.5265C46.8838 21.5265 44.229 23.0203 42.7944 25.2462C42.7501 24.9504 42.7057 24.662 42.6466 24.3663C42.5948 24.0704 42.5431 23.782 42.4765 23.4937C42.3508 22.8651 42.1955 22.2439 42.0327 21.6302C41.9662 21.3936 41.8996 21.1642 41.8257 20.9276C41.6778 20.4248 41.5151 19.9367 41.3376 19.4486C41.2785 19.2785 41.2193 19.1158 41.1601 18.9532C41.0936 18.7831 41.0345 18.6204 40.9679 18.4578C40.6795 17.7404 40.3689 17.0379 40.0362 16.3501C39.9474 16.1578 39.8513 15.9656 39.7477 15.7806C39.6738 15.6253 39.5924 15.4775 39.511 15.3222C39.3779 15.0632 39.2374 14.8119 39.0969 14.5679C38.9564 14.3165 38.8085 14.0724 38.6606 13.8285C38.5128 13.5844 38.3575 13.3404 38.2022 13.0964C38.0469 12.8597 37.8916 12.623 37.7289 12.3865C35.9541 9.79086 33.7874 7.48358 31.3175 5.54614C30.7998 5.13945 30.2675 4.74747 29.7202 4.37775C29.3282 4.09676 28.9215 3.83792 28.5148 3.57908C28.5075 3.57908 28.5 3.57162 28.5 3.57162C28.256 3.42378 28.0194 3.27593 27.7754 3.13533C27.938 3.02433 28.0933 2.92091 28.256 2.81726H28.5C28.9067 2.81726 29.3208 2.82461 29.7202 2.84687C36.3904 3.09102 42.4764 5.41288 47.2165 9.11031C49.0579 10.5375 50.6922 12.1719 52.0823 13.9762C54.604 17.2301 56.327 21.0386 57 25.1575Z" fill="#0D39AC"/>
<path d="M28.5 3.56717V25.2638C29.9309 23.0274 32.593 21.5241 35.6413 21.5241C38.6894 21.5241 41.3516 23.0274 42.7825 25.2638C42.7862 25.2581 42.7901 25.2527 42.7936 25.247C41.4258 16.0934 36.0456 8.25141 28.5 3.56717Z" fill="#002653"/>
<path d="M27.7773 3.13199C23.8255 5.76145 20.513 9.27552 18.1236 13.3921C16.4382 16.2956 15.2124 19.4989 14.5443 22.9021C14.3952 23.6615 14.2733 24.4306 14.1809 25.2088C14.1929 25.2273 14.2056 25.2453 14.2174 25.2639C14.9579 24.1065 16.0287 23.1464 17.3116 22.4885C18.5077 21.8751 19.8879 21.5243 21.3587 21.5243C21.9806 21.5243 22.586 21.5879 23.1685 21.7064C25.4415 22.1691 27.361 23.4839 28.4999 25.2639V3.56717C28.2612 3.41899 28.0204 3.27382 27.7773 3.13199Z" fill="#0D39AC"/>
<path d="M28.0771 2.81738V3.02078C28.0351 3.04705 27.9938 3.07399 27.9526 3.10016C27.9467 3.10372 27.9408 3.10795 27.9349 3.11151C27.9283 3.11574 27.9217 3.11997 27.915 3.12431C27.7986 3.19879 27.6829 3.27394 27.568 3.35042C27.5253 3.37881 27.4818 3.40709 27.4391 3.43626C27.4222 3.44694 27.4059 3.45819 27.389 3.46954C27.3721 3.4809 27.3544 3.49225 27.3374 3.50361C14.547 4.25797 4.05517 12.354 1.31294 23.0205C0.925404 23.3843 0.580621 23.7834 0.285156 24.2115C2.27871 12.4447 13.5905 3.33985 27.4391 2.83508C27.6513 2.82662 27.8641 2.82095 28.0771 2.81738Z" fill="#0A2F5A"/>
</g>
<defs>
<clipPath id="clip0_3_11">
<rect width="57" height="57" fill="white"/>
</clipPath>
</defs>
</svg>
