<svg width="1440" height="990" viewBox="0 0 1440 990" fill="none" xmlns="http://www.w3.org/2000/svg">
<g filter="url(#filter0_f_10_8880)">
<ellipse cx="623.5" cy="550.082" rx="594.296" ry="665.514" transform="rotate(60 623.5 550.082)" fill="url(#paint0_linear_10_8880)"/>
</g>
<path d="M223 899.019L239.198 913.604L258.074 902.706L249.209 922.618L265.406 937.202L243.73 934.924L234.864 954.836L230.332 933.516L208.656 931.237L227.532 920.339L223 899.019Z" fill="#FFC700" fill-opacity="0.34"/>
<path d="M326.532 898.081L333.099 903.993L340.751 899.575L337.157 907.647L343.724 913.56L334.936 912.636L331.342 920.708L329.505 912.065L320.717 911.142L328.369 906.724L326.532 898.081Z" fill="#FFC700" fill-opacity="0.34"/>
<path d="M321.532 948.081L328.099 953.993L335.751 949.575L332.157 957.647L338.724 963.56L329.936 962.636L326.342 970.708L324.505 962.065L315.717 961.142L323.369 956.724L321.532 948.081Z" fill="#FFC700" fill-opacity="0.34"/>
<path d="M430.532 14.0808L437.099 19.9932L444.751 15.5752L441.157 23.6473L447.724 29.5598L438.936 28.6361L435.342 36.7082L433.505 28.0653L424.717 27.1417L432.369 22.7237L430.532 14.0808Z" fill="#FFC700" fill-opacity="0.34"/>
<path d="M537.761 33.8657L538.223 42.6896L546.758 44.9765L538.509 48.1431L538.972 56.967L533.411 50.1001L525.162 53.2667L529.974 45.8562L524.414 38.9893L532.949 41.2762L537.761 33.8657Z" fill="#FFC700" fill-opacity="0.34"/>
<path d="M605.235 17.1622L605.579 23.7219L611.923 25.422L605.791 27.776L606.135 34.3356L602.001 29.2308L595.869 31.5848L599.446 26.0759L595.312 20.9711L601.657 22.6712L605.235 17.1622Z" fill="#FFC700" fill-opacity="0.34"/>
<path d="M645.962 38.0971L646.827 54.604L662.793 58.8822L647.361 64.8059L648.226 81.3128L637.824 68.4669L622.392 74.3905L631.395 60.5277L620.993 47.6818L636.959 51.96L645.962 38.0971Z" fill="#FFC700" fill-opacity="0.34"/>
<path d="M419.532 58.0808L426.099 63.9932L433.751 59.5752L430.157 67.6473L436.724 73.5598L427.936 72.6361L424.342 80.7082L422.505 72.0653L413.717 71.1417L421.369 66.7237L419.532 58.0808Z" fill="#FFC700" fill-opacity="0.34"/>
<defs>
<filter id="filter0_f_10_8880" x="-319.079" y="-356.868" width="1885.16" height="1813.9" filterUnits="userSpaceOnUse" color-interpolation-filters="sRGB">
<feFlood flood-opacity="0" result="BackgroundImageFix"/>
<feBlend mode="normal" in="SourceGraphic" in2="BackgroundImageFix" result="shape"/>
<feGaussianBlur stdDeviation="147" result="effect1_foregroundBlur_10_8880"/>
</filter>
<linearGradient id="paint0_linear_10_8880" x1="180.23" y1="-86.3146" x2="879.591" y2="1415.54" gradientUnits="userSpaceOnUse">
<stop/>
<stop offset="1" stop-color="#020060"/>
<stop offset="1" stop-color="#010001"/>
<stop offset="1" stop-color="#3900DC"/>
<stop offset="1" stop-color="#3E11BE"/>
</linearGradient>
</defs>
</svg>
