<svg width="73" height="66" viewBox="0 0 73 66" fill="none" xmlns="http://www.w3.org/2000/svg">
<path d="M42.5053 7.46222C42.5053 5.41075 43.2073 3.64136 44.6111 2.15404C46.067 0.718013 47.9127 -1.0966e-06 50.1485 -9.98871e-07C52.3843 -9.01143e-07 54.1781 0.718013 55.5299 2.15404C56.9338 3.64136 57.6357 5.41075 57.6357 7.46222C57.6357 9.56497 56.9338 11.3344 55.5299 12.7704C54.1781 14.2064 52.3843 14.9244 50.1485 14.9244C47.9127 14.9244 46.067 14.2064 44.6111 12.7704C43.2073 11.3344 42.5053 9.56497 42.5053 7.46222ZM14.5064 7.46222C14.5064 5.41075 15.2083 3.64136 16.6122 2.15404C18.068 0.718012 19.9138 -2.32047e-06 22.1496 -2.22274e-06C24.3853 -2.12501e-06 26.1791 0.718012 27.531 2.15404C28.9348 3.64136 29.6368 5.41075 29.6368 7.46222C29.6368 9.56497 28.9348 11.3344 27.531 12.7704C26.1791 14.2064 24.3853 14.9244 22.1496 14.9244C19.9138 14.9244 18.068 14.2064 16.6122 12.7704C15.2083 11.3344 14.5064 9.56497 14.5064 7.46222Z" fill="white" fill-opacity="0.3"/>
<path d="M-2.38391e-06 54.5374C4.73148 51.4602 10.1909 49.0754 16.3782 47.3829C22.6175 45.7417 29.3248 44.9212 36.5 44.9212C43.6752 44.9212 50.3825 45.7417 56.6218 47.3829C62.9131 49.0754 68.3725 51.4602 73 54.5374L73 66C67.1246 62.7689 61.1973 60.4098 55.2179 58.9224C49.2906 57.4351 43.0513 56.6915 36.5 56.6915C29.9487 56.6915 23.6834 57.4351 17.7041 58.9224C11.7767 60.4097 5.87536 62.7689 -2.88495e-06 66L-2.38391e-06 54.5374Z" fill="white" fill-opacity="0.3"/>
</svg>
