<svg width="125" height="125" viewBox="0 0 125 125" fill="none" xmlns="http://www.w3.org/2000/svg">
<path d="M68.5053 36.9622C68.5053 34.9107 69.2073 33.1414 70.6111 31.654C72.067 30.218 73.9127 29.5 76.1485 29.5C78.3843 29.5 80.1781 30.218 81.5299 31.654C82.9338 33.1414 83.6357 34.9107 83.6357 36.9622C83.6357 39.065 82.9338 40.8344 81.5299 42.2704C80.1781 43.7064 78.3843 44.4244 76.1485 44.4244C73.9127 44.4244 72.067 43.7064 70.6111 42.2704C69.2073 40.8344 68.5053 39.065 68.5053 36.9622ZM40.5064 36.9622C40.5064 34.9107 41.2083 33.1414 42.6122 31.654C44.068 30.218 45.9138 29.5 48.1496 29.5C50.3853 29.5 52.1791 30.218 53.531 31.654C54.9348 33.1414 55.6368 34.9107 55.6368 36.9622C55.6368 39.065 54.9348 40.8344 53.531 42.2704C52.1791 43.7064 50.3853 44.4244 48.1496 44.4244C45.9138 44.4244 44.068 43.7064 42.6122 42.2704C41.2083 40.8344 40.5064 39.065 40.5064 36.9622Z" fill="#FF9029"/>
<path d="M26 84.0374C30.7315 80.9602 36.1909 78.5754 42.3782 76.8829C48.6175 75.2417 55.3248 74.4212 62.5 74.4212C69.6752 74.4212 76.3825 75.2417 82.6218 76.8829C88.9131 78.5754 94.3725 80.9602 99 84.0374L99 95.5C93.1246 92.2689 87.1973 89.9098 81.2179 88.4224C75.2906 86.9351 69.0513 86.1915 62.5 86.1915C55.9487 86.1915 49.6834 86.9351 43.7041 88.4224C37.7767 89.9097 31.8754 92.2689 26 95.5L26 84.0374Z" fill="#FF9029"/>
</svg>
