<svg width="24" height="22" viewBox="0 0 24 22" fill="none" xmlns="http://www.w3.org/2000/svg">
<path d="M23.7498 18.0015C23.5876 17.7044 23.3479 17.4448 23.0466 17.2558L12.2687 10.4926V9.53656C12.2685 9.50366 12.2843 9.47394 12.3079 9.45294C12.4043 9.4445 12.5319 9.42912 12.682 9.39973C12.9894 9.33884 13.3935 9.22686 13.7992 8.96511C14.3942 8.57811 14.8875 8.05114 15.2334 7.42822C15.5791 6.80534 15.7765 6.08516 15.7763 5.32545C15.7767 4.13009 15.2892 3.04002 14.5057 2.2572C13.7232 1.47374 12.6332 0.986938 11.4382 0.986938C10.5425 0.986938 9.70322 1.26022 9.01172 1.72813C8.31989 2.19594 7.77122 2.85664 7.44103 3.63631C7.26239 4.0587 7.4603 4.54616 7.88264 4.72494C8.30517 4.90344 8.79281 4.70605 8.97131 4.2837C9.17391 3.80427 9.5146 3.39383 9.94219 3.10508C10.3702 2.81642 10.8809 2.64842 11.4382 2.64842C12.1795 2.64842 12.8437 2.94655 13.3308 3.43264C13.8165 3.91939 14.1144 4.58356 14.1146 5.32545C14.1144 5.79856 13.9937 6.23703 13.7806 6.62159C13.5675 7.0055 13.2613 7.33306 12.8939 7.5717C12.7507 7.66723 12.5376 7.73722 12.3654 7.76938C12.2797 7.78583 12.2053 7.79459 12.1568 7.79844C12.1324 7.80088 12.1147 7.80195 12.1054 7.80228H12.1005L11.9878 7.80369L11.8772 7.83659C11.1242 8.05953 10.6073 8.75099 10.6072 9.53661V10.5182L0.870844 17.3104L0.871032 17.3097C0.314813 17.6978 -0.000514994 18.3266 6.31371e-07 18.9789C6.31371e-07 19.1825 0.0308444 19.3887 0.0937975 19.5885C0.360235 20.4367 1.14586 21.0131 2.03438 21.0131H21.9655C22.8725 21.0131 23.6695 20.4129 23.9205 19.5412V19.5409C23.9736 19.355 24 19.1657 24 18.9789C24 18.6342 23.9123 18.299 23.7498 18.0015ZM22.3238 19.0825V19.0821C22.278 19.2413 22.1316 19.3519 21.9655 19.3519H2.03438C1.87149 19.3519 1.72744 19.2455 1.67883 19.0909C1.66674 19.0531 1.66153 19.0156 1.66153 18.9789C1.66186 18.8592 1.71891 18.7437 1.82091 18.673H1.82128L11.4623 11.948L22.1635 18.6629C22.2201 18.6986 22.2621 18.7448 22.2923 18.7994C22.3224 18.854 22.3387 18.9159 22.3387 18.9789C22.3387 19.0129 22.3338 19.0468 22.3238 19.0825Z" fill="#C5D36E"/>
</svg>
