<svg width="10" height="84" viewBox="0 0 10 84" fill="none" xmlns="http://www.w3.org/2000/svg">
<path d="M2.6506 59.5398L1.44578 0H8.43373L7.22892 59.5398H2.6506ZM4.93976 84C3.5743 84 2.40964 83.5227 1.44578 82.5682C0.481928 81.5341 0 80.3807 0 79.1079C0 77.7557 0.481928 76.6023 1.44578 75.6477C2.40964 74.6932 3.5743 74.2159 4.93976 74.2159C6.38554 74.2159 7.59036 74.6932 8.55422 75.6477C9.51807 76.6023 10 77.7557 10 79.1079C10 80.3807 9.51807 81.5341 8.55422 82.5682C7.59036 83.5227 6.38554 84 4.93976 84Z" fill="#FF9029"/>
</svg>
